:SAMPLES-PER-SECOND 30
:FRAME-RANGE 1-564
:FULLY-SPECIFIED
:DEGREES
512
root  43.0113 38.3368 -140.526 -10.0378 -75.6994 0.896225
RightUpLeg  18.1509 -3.00023 -1.87706
RightLeg  -8.09835 -11.5783 -1.28058
RightFoot  -2.15939 -0.608125 7.37901
RightToes  -1.74624e-010 0 -3.6325e-017
Spine  5.55383 3.72308 6.57443
Spine1  2.18681 5.56724 -7.19844
HEad  0.886581 7.34057 -6.80377
LeftShoulder1  2.95235 -3.7392 -34.7302
LeftArm  4.90069 10.3782 -29.5065
LeftForeArm  0.879396 -2.4802 -17.4472
LeftHand  -0.666776 -1.23025 11.8397
RightShoulder  6.59389 4.68801 68.3377
RightArm  21.6281 5.21266 -1.80787
RightForeArm  11.017 10.4228 12.4865
RightHand  0.677641 20.1823 2.55213
LeftUpLeg  19.35 7.19339 4.1867
LeftLeg  -6.67518 8.51843 -0.154212
LeftFoot  -5.41115 -0.0971407 2.50487
LeftToes  -6.43926e-010 8.38805e-011 -3.16407e-011
513
root  43.0458 38.3193 -140.432 -10.8029 -75.6728 1.40088
RightUpLeg  18.1508 -3.31366 -2.41738
RightLeg  -7.48073 -11.0432 -1.33105
RightFoot  -2.47374 -0.649892 8.1498
RightToes  -1.74624e-010 0 -3.6325e-017
Spine  5.91407 3.09929 8.00744
Spine1  1.72976 5.38175 -9.28412
HEad  0.501956 6.97604 -6.61091
LeftShoulder1  2.85835 -3.46979 -34.9506
LeftArm  6.47358 11.287 -28.6495
LeftForeArm  -1.25446 -4.33467 -17.0827
LeftHand  -0.638282 -1.22511 11.3502
RightShoulder  7.38557 5.48411 69.4971
RightArm  21.2998 4.94579 -2.15367
RightForeArm  12.6976 8.95209 13.2216
RightHand  0.383054 18.8847 1.328
LeftUpLeg  19.3274 7.13759 3.90903
LeftLeg  -6.05876 8.56518 -0.089165
LeftFoot  -5.71281 -0.0943876 2.62018
LeftToes  -6.43926e-010 8.38805e-011 -3.16407e-011
514
root  43.0903 38.3143 -140.358 -11.2334 -75.4582 1.64726
RightUpLeg  17.9153 -3.3931 -2.66591
RightLeg  -6.59383 -11.079 -1.48524
RightFoot  -2.80962 -0.634292 8.2322
RightToes  -1.74624e-010 0 -3.6325e-017
Spine  5.78943 3.24484 7.93459
Spine1  2.27548 5.52324 -9.13538
HEad  -0.249931 5.74703 -6.81569
LeftShoulder1  2.8704 -3.574 -34.5254
LeftArm  5.19696 11.1297 -29.7795
LeftForeArm  0.326664 -4.3576 -16.872
LeftHand  -0.733461 -1.76732 12.0674
RightShoulder  7.27228 5.38699 69.2381
RightArm  22.186 4.81169 -1.94957
RightForeArm  12.3737 8.40576 13.597
RightHand  0.0882276 17.0669 -0.0247473
LeftUpLeg  19.209 7.16582 3.70045
LeftLeg  -5.51605 8.74201 -0.0577721
LeftFoot  -5.881 -0.118852 3.235
LeftToes  -6.43926e-010 8.38805e-011 -3.16407e-011
515
root  43.1308 38.3073 -140.295 -11.601 -75.0729 1.8736
RightUpLeg  17.8667 -3.54211 -2.94857
RightLeg  -6.10861 -11.1814 -1.49331
RightFoot  -3.05588 -0.635474 8.47014
RightToes  -1.74624e-010 0 -3.6325e-017
Spine  6.17229 3.19615 7.73039
Spine1  1.63068 5.41431 -9.08681
HEad  -0.212354 4.97266 -6.71783
LeftShoulder1  2.95314 -3.77337 -34.5528
LeftArm  5.36406 11.4668 -30.0706
LeftForeArm  1.35634 -4.75731 -16.684
LeftHand  -0.839898 -2.43814 12.6484
RightShoulder  7.08054 5.0916 69.6378
RightArm  20.2629 4.78681 -2.35788
RightForeArm  14.8923 6.44675 14.2744
RightHand  0.147459 16.9721 0.283153
LeftUpLeg  19.0972 7.15578 3.62769
LeftLeg  -5.14456 8.12216 -0.0456256
LeftFoot  -6.0234 -0.108877 3.12545
LeftToes  -6.43926e-010 8.38805e-011 -3.16407e-011
516
root  43.1525 38.297 -140.253 -11.7821 -74.6829 1.96002
RightUpLeg  17.9054 -3.41025 -2.96153
RightLeg  -5.85982 -12.577 -1.5137
RightFoot  -3.38127 -0.70515 9.77998
RightToes  -1.74624e-010 0 -3.6325e-017
Spine  5.89358 3.09085 7.14737
Spine1  2.01902 5.11085 -8.34205
HEad  -1.31073 5.55246 -6.55681
LeftShoulder1  2.95326 -3.72796 -34.8047
LeftArm  4.33524 10.6667 -30.5157
LeftForeArm  1.3615 -3.78867 -16.9495
LeftHand  -0.742997 -1.88996 12.0245
RightShoulder  7.15074 5.17235 69.6666
RightArm  19.3107 4.74952 -2.65141
RightForeArm  13.7163 5.17973 14.8404
RightHand  0.110806 15.7778 0.135317
LeftUpLeg  18.9364 7.1454 3.45287
LeftLeg  -4.73081 8.19052 0.0834951
LeftFoot  -6.18425 -0.122045 3.53669
LeftToes  -6.43926e-010 8.38805e-011 -3.16407e-011
517
root  43.166 38.2967 -140.213 -11.6788 -74.4229 1.82382
RightUpLeg  18.0046 -3.45162 -3.02078
RightLeg  -5.93438 -12.7571 -1.44284
RightFoot  -3.33053 -0.704701 9.71666
RightToes  -1.74624e-010 0 -3.6325e-017
Spine  5.84444 3.09043 7.12143
Spine1  2.00139 5.12672 -8.52305
HEad  -0.84493 4.02708 -6.44861
LeftShoulder1  2.97357 -3.861 -34.3511
LeftArm  4.51555 10.3866 -31.1329
LeftForeArm  2.51122 -3.719 -16.9395
LeftHand  -0.793213 -2.30161 12.1635
RightShoulder  6.80521 4.71134 69.955
RightArm  17.3301 4.83093 -2.88137
RightForeArm  14.9582 3.2614 15.3164
RightHand  0.0697214 15.6357 -0.0848864
LeftUpLeg  18.9227 7.08516 3.3793
LeftLeg  -4.70989 7.94184 0.17711
LeftFoot  -6.18437 -0.120839 3.5815
LeftToes  -6.43926e-010 8.38805e-011 -3.16407e-011
518
root  43.177 38.2956 -140.173 -11.8771 -74.2963 2.03235
RightUpLeg  18.0356 -3.31904 -3.01211
RightLeg  -5.98043 -13.0494 -1.60831
RightFoot  -3.2797 -0.727776 9.98556
RightToes  -1.74624e-010 0 -3.6325e-017
Spine  5.34442 2.93811 7.24061
Spine1  2.83285 5.06685 -8.78533
HEad  -1.43163 4.06015 -6.28895
LeftShoulder1  2.90811 -3.77427 -33.9371
LeftArm  4.34542 10.0013 -31.7443
LeftForeArm  2.95984 -3.85073 -16.8569
LeftHand  -0.82096 -2.43652 12.3721
RightShoulder  6.83829 4.73372 70.0752
RightArm  15.4269 4.94132 -3.14442
RightForeArm  14.6282 1.69358 15.649
RightHand  0.351154 15.7987 1.44274
LeftUpLeg  19.0572 7.02079 3.22707
LeftLeg  -5.02119 7.82144 0.147679
LeftFoot  -6.05886 -0.124331 3.64787
LeftToes  -6.43926e-010 8.38805e-011 -3.16407e-011
519
root  43.1959 38.2988 -140.139 -11.9161 -74.2111 2.13039
RightUpLeg  18.0943 -3.29034 -3.04048
RightLeg  -6.24791 -13.1939 -1.63133
RightFoot  -3.11027 -0.747533 10.0689
RightToes  -1.74624e-010 0 -3.6325e-017
Spine  5.21446 2.92544 7.14987
Spine1  2.98028 5.03887 -8.65721
HEad  -1.75644 3.8925 -6.21245
LeftShoulder1  2.9255 -3.81225 -33.9673
LeftArm  4.03199 9.61144 -31.8643
LeftForeArm  3.22384 -3.6537 -16.881
LeftHand  -0.81399 -2.64015 11.9725
RightShoulder  6.59713 4.46914 69.8927
RightArm  15.1858 4.72449 -3.14548
RightForeArm  15.39 0.370595 15.9419
RightHand  0.0806227 15.5797 -0.0234555
LeftUpLeg  19.0302 6.8769 3.04397
LeftLeg  -5.16527 7.89319 0.202339
LeftFoot  -6.03039 -0.115105 3.47878
LeftToes  -6.43926e-010 8.38805e-011 -3.16407e-011
520
root  43.2238 38.3029 -140.122 -11.6421 -74.3012 1.9503
RightUpLeg  18.0893 -3.34756 -3.08453
RightLeg  -6.57438 -13.05 -1.47582
RightFoot  -2.90361 -0.759612 10.0042
RightToes  -1.74624e-010 0 -3.6325e-017
Spine  5.28184 2.82085 7.35731
Spine1  2.89962 4.99873 -8.96111
HEad  -2.51984 4.39441 -5.86963
LeftShoulder1  2.92045 -3.81656 -33.8759
LeftArm  3.95414 9.45077 -31.8854
LeftForeArm  1.44049 -3.73105 -16.9317
LeftHand  -0.655569 -1.23476 11.6363
RightShoulder  6.49857 4.33988 69.9667
RightArm  14.9373 4.51899 -3.29902
RightForeArm  16.1358 -0.509547 16.0966
RightHand  0.145383 16.0527 0.311416
LeftUpLeg  18.8345 6.93408 3.13458
LeftLeg  -5.0284 7.71939 0.126361
LeftFoot  -6.09915 -0.113264 3.40159
LeftToes  -6.43926e-010 8.38805e-011 -3.16407e-011
521
root  43.2542 38.3079 -140.111 -11.5395 -74.5384 1.95715
RightUpLeg  17.8827 -3.41563 -3.15512
RightLeg  -6.55755 -12.7256 -1.46684
RightFoot  -2.84104 -0.761107 9.95625
RightToes  -1.74624e-010 0 -3.6325e-017
Spine  5.47214 2.75154 7.26454
Spine1  2.60139 4.86799 -8.75764
HEad  -3.04574 4.83481 -6.06711
LeftShoulder1  2.91631 -3.72655 -34.3093
LeftArm  4.66999 9.34447 -31.4242
LeftForeArm  1.81409 -3.99295 -16.8935
LeftHand  -0.743113 -1.93333 11.9583
RightShoulder  6.50397 4.35085 69.9345
RightArm  14.7656 4.26791 -3.6097
RightForeArm  15.8781 -1.28017 16.2506
RightHand  0.169193 15.3674 0.475021
LeftUpLeg  18.6901 6.92732 3.08051
LeftLeg  -5.01435 7.99578 0.0749459
LeftFoot  -6.06711 -0.118628 3.42771
LeftToes  -6.43926e-010 8.38805e-011 -3.16407e-011
522
root  43.2793 38.3144 -140.118 -11.1932 -74.8781 1.77885
RightUpLeg  17.6955 -3.31225 -3.04586
RightLeg  -6.76902 -12.5179 -1.46229
RightFoot  -2.63968 -0.767947 9.83328
RightToes  -1.74624e-010 0 -3.6325e-017
Spine  5.53738 2.78048 6.89735
Spine1  2.39272 4.72569 -8.0919
HEad  -3.08766 4.87142 -6.48454
LeftShoulder1  2.94395 -3.68601 -34.9113
LeftArm  5.89468 9.27415 -30.9089
LeftForeArm  3.04096 -4.4441 -16.7945
LeftHand  -1.03975 -1.97908 16.5133
RightShoulder  6.45845 4.33264 69.6692
RightArm  14.7244 4.11736 -3.79464
RightForeArm  15.8897 -1.85836 16.3601
RightHand  0.187252 15.2736 0.580892
LeftUpLeg  18.5135 6.92813 3.0829
LeftLeg  -5.06507 8.37531 0.0365723
LeftFoot  -6.0021 -0.12825 3.52548
LeftToes  -6.43926e-010 8.38805e-011 -3.16407e-011
523
root  43.2946 38.3181 -140.122 -10.9879 -75.275 1.75697
RightUpLeg  17.4152 -3.20578 -2.95207
RightLeg  -6.79692 -12.2828 -1.56762
RightFoot  -2.54477 -0.781383 9.90911
RightToes  -1.74624e-010 0 -3.6325e-017
Spine  5.48139 2.77733 6.76219
Spine1  2.40151 4.68841 -7.94768
HEad  -4.53682 5.2449 -7.1063
LeftShoulder1  2.95108 -3.71469 -34.8487
LeftArm  6.15295 9.36085 -30.8477
LeftForeArm  2.23882 -4.57088 -16.816
LeftHand  -0.885998 -2.8317 12.7157
RightShoulder  6.39424 4.26892 69.5665
RightArm  14.5848 4.02152 -3.84986
RightForeArm  15.7177 -2.11483 16.3969
RightHand  0.134769 15.0183 0.29942
LeftUpLeg  18.4209 6.86962 3.0166
LeftLeg  -5.26137 8.78076 0.00181834
LeftFoot  -5.91497 -0.127603 3.44413
LeftToes  -6.43926e-010 8.38805e-011 -3.16407e-011
524
root  43.2986 38.3214 -140.151 -10.5915 -75.6078 1.43217
RightUpLeg  17.3739 -3.1221 -2.78895
RightLeg  -7.04046 -12.1266 -1.52387
RightFoot  -2.39697 -0.784887 9.80276
RightToes  -1.74624e-010 0 -3.6325e-017
Spine  5.74389 2.77621 7.01451
Spine1  2.06421 4.83979 -8.71847
HEad  -3.79012 4.73054 -6.46488
LeftShoulder1  2.99516 -3.96811 -34.0659
LeftArm  6.03715 9.44586 -31.0216
LeftForeArm  5.36906 -4.30115 -16.7521
LeftHand  -1.30102 -3.06117 18.0073
RightShoulder  6.11929 3.86428 70.1076
RightArm  14.4982 4.04722 -3.99712
RightForeArm  16.0019 -2.07069 16.3846
RightHand  0.18298 15.3705 0.551465
LeftUpLeg  18.3932 6.91499 3.13971
LeftLeg  -5.34516 8.98003 -0.0150162
LeftFoot  -5.85003 -0.124813 3.34627
LeftToes  -6.43926e-010 8.38805e-011 -3.16407e-011
525
root  43.3012 38.3234 -140.172 -10.2975 -75.8391 1.23955
RightUpLeg  17.2559 -3.00169 -2.63357
RightLeg  -7.14099 -12.0928 -1.55411
RightFoot  -2.31197 -0.7912 9.79723
RightToes  -1.74624e-010 0 -3.6325e-017
Spine  5.24895 2.42584 6.08866
Spine1  2.62209 4.07731 -6.98712
HEad  -4.386 5.84456 -7.63666
LeftShoulder1  2.91809 -3.4489 -35.9118
LeftArm  8.56081 9.52056 -29.512
LeftForeArm  1.44318 -5.59999 -16.6774
LeftHand  -1.06394 -2.66452 15.5037
RightShoulder  6.85833 4.85498 69.4146
RightArm  13.8836 4.02201 -4.22963
RightForeArm  17.7864 -2.89296 16.3247
RightHand  0.118292 16.0885 0.164384
LeftUpLeg  18.3326 6.91284 3.17193
LeftLeg  -5.45264 9.29216 -0.0153375
LeftFoot  -5.76488 -0.129933 3.38064
LeftToes  -6.43926e-010 8.38805e-011 -3.16407e-011
526
root  43.2982 38.3256 -140.2 -10.0084 -76.0767 1.0416
RightUpLeg  17.1498 -2.89465 -2.48387
RightLeg  -7.22175 -11.9952 -1.57981
RightFoot  -2.23898 -0.790124 9.73984
RightToes  -1.74624e-010 0 -3.6325e-017
Spine  4.98089 2.95597 6.10561
Spine1  3.37321 4.76905 -7.45746
HEad  -5.47899 5.5372 -6.68689
LeftShoulder1  3.02062 -4.06462 -33.8938
LeftArm  4.38686 8.20273 -31.4949
LeftForeArm  6.4871 -2.57018 -17.1287
LeftHand  -1.23835 -2.65402 17.9978
RightShoulder  5.9319 3.75763 69.1765
RightArm  13.4748 4.24278 -3.66499
RightForeArm  19.5925 -2.15294 16.0168
RightHand  0.257221 17.424 0.819334
LeftUpLeg  18.2609 6.88683 3.20704
LeftLeg  -5.49284 9.5183 0.0263079
LeftFoot  -5.72257 -0.123272 3.23952
LeftToes  -6.43926e-010 8.38805e-011 -3.16407e-011
